<svg width="120" height="36" viewBox="0 0 120 36" fill="none" xmlns="http://www.w3.org/2000/svg">
  <path d="M10.44 28V8.36H14.16V24.88H24.96V28H10.44Z" fill="white"/>
  <path d="M29.519 28V13.04H32.999V16.16C33.879 14.08 35.679 12.8 38.279 12.8C41.719 12.8 43.799 15.12 43.799 18.8V28H40.319V19.52C40.319 17.12 39.159 15.84 36.999 15.84C34.759 15.84 33.119 17.28 33.119 20.08V28H29.519Z" fill="white"/>
  <path d="M49.4828 28L42.8428 13.04H46.6828L51.0828 24.16L55.4828 13.04H59.0828L52.4428 28H49.4828Z" fill="white"/>
  <path d="M64.102 28V24.88H67.582V16.16H64.102V13.04H67.582V8.36H71.182V13.04H74.902V16.16H71.182V24.88H74.902V28H64.102Z" fill="white"/>
  <path d="M86.8575 28V24.4C85.8975 25.92 83.9775 28.24 80.6975 28.24C76.5375 28.24 73.0575 25.04 73.0575 20.52C73.0575 16.08 76.5375 12.8 80.6975 12.8C83.9775 12.8 85.8975 15.12 86.8575 16.64V8.36H90.4575V28H86.8575ZM86.8575 20.52C86.8575 17.72 84.8175 16.04 82.0175 16.04C79.2175 16.04 77.1375 17.72 77.1375 20.52C77.1375 23.32 79.2175 25 82.0175 25C84.8175 25 86.8575 23.32 86.8575 20.52Z" fill="white"/>
  <path d="M99.9434 28.24C95.5834 28.24 92.0634 25.12 92.0634 20.52C92.0634 15.92 95.5834 12.8 99.9434 12.8C104.303 12.8 107.823 15.92 107.823 20.52C107.823 25.12 104.303 28.24 99.9434 28.24ZM103.743 20.52C103.743 17.72 102.023 16.04 99.9434 16.04C97.8634 16.04 96.1434 17.72 96.1434 20.52C96.1434 23.32 97.8634 25 99.9434 25C102.023 25 103.743 23.32 103.743 20.52Z" fill="white"/>
  <!-- Gradient for EX -->
  <linearGradient id="paint0_linear" x1="82" y1="8" x2="110" y2="28" gradientUnits="userSpaceOnUse">
    <stop stop-color="#3b82f6" />
    <stop offset="1" stop-color="#7c3aed" />
  </linearGradient>
  <path d="M64.102 28V24.88H67.582V16.16H64.102V13.04H67.582V8.36H71.182V13.04H74.902V16.16H71.182V24.88H74.902V28H64.102Z" fill="url(#paint0_linear)" />
  <path d="M86.8575 28V24.4C85.8975 25.92 83.9775 28.24 80.6975 28.24C76.5375 28.24 73.0575 25.04 73.0575 20.52C73.0575 16.08 76.5375 12.8 80.6975 12.8C83.9775 12.8 85.8975 15.12 86.8575 16.64V8.36H90.4575V28H86.8575ZM86.8575 20.52C86.8575 17.72 84.8175 16.04 82.0175 16.04C79.2175 16.04 77.1375 17.72 77.1375 20.52C77.1375 23.32 79.2175 25 82.0175 25C84.8175 25 86.8575 23.32 86.8575 20.52Z" fill="url(#paint0_linear)" />
  <path d="M99.9434 28.24C95.5834 28.24 92.0634 25.12 92.0634 20.52C92.0634 15.92 95.5834 12.8 99.9434 12.8C104.303 12.8 107.823 15.92 107.823 20.52C107.823 25.12 104.303 28.24 99.9434 28.24ZM103.743 20.52C103.743 17.72 102.023 16.04 99.9434 16.04C97.8634 16.04 96.1434 17.72 96.1434 20.52C96.1434 23.32 97.8634 25 99.9434 25C102.023 25 103.743 23.32 103.743 20.52Z" fill="url(#paint0_linear)" />
</svg> 